$MeshFormat
4.1 0 8
$EndMeshFormat
$PhysicalNames
6
1 3 "Left"
1 4 "Right"
1 5 "Top"
1 6 "Bottom"
1 7 "Interface"
2 1 "Fluid"
$EndPhysicalNames
$Entities
5 5 2 0
1 0 0 0 0 
2 2 0 0 0 
3 0 1 0 0 
4 2 1 0 0 
5 0.8 0.5 0 0 
1 -9.999999994736442e-08 -1e-07 -1e-07 2.0000001 1e-07 1e-07 1 6 2 1 -2 
2 -1e-07 -9.999999994736442e-08 -1e-07 1e-07 1.0000001 1e-07 1 3 2 3 -1 
3 1.9999999 -9.999999994736442e-08 -1e-07 2.0000001 1.0000001 1e-07 1 4 2 2 -4 
4 -9.999999994736442e-08 0.9999999000000001 -1e-07 2.0000001 1.0000001 1e-07 1 5 2 4 -3 
5 0.1999999 0.1999999 -1e-07 0.8000001 0.8000001 1e-07 1 7 2 5 -5 
2 0.1999999 0.1999999 -1e-07 0.8000001 0.8000001 1e-07 0 1 5 
3 -9.999999994736442e-08 -9.999999994736442e-08 -1e-07 2.0000001 1.0000001 1e-07 1 1 5 1 3 4 2 -5 
$EndEntities
$Nodes
11 274 1 274
0 1 0 1
1
0 0 0
0 2 0 1
2
2 0 0
0 3 0 1
3
0 1 0
0 4 0 1
4
2 1 0
0 5 0 1
5
0.8 0.5 0
1 1 0 10
6
7
8
9
10
11
12
13
14
15
0.2034780140157217 0 0
0.3695854152707539 0 0
0.4936335934226019 0 0
0.6197672378747967 0 0
0.7768414074147045 0 0
0.9773751451648948 0 0
1.181900116131916 0 0
1.386425087098937 0 0
1.590950058065958 0 0
1.795475029032979 0 0
1 2 0 5
16
17
18
19
20
0 0.7928255702370082 0
0 0.6275986378423297 0
0 0.4999999999999987 0
0 0.3724013621576673 0
0 0.2071744297629912 0
1 3 0 4
21
22
23
24
2 0.2000000000000003 0
2 0.400000000000001 0
2 0.6000000000000009 0
2 0.8000000000000004 0
1 4 0 10
25
26
27
28
29
30
31
32
33
34
1.795475029032978 1 0
1.590950058065956 1 0
1.386425087098934 1 0
1.181900116131911 1 0
0.97737514516489 1 0
0.7768414074146999 1 0
0.6197672378747945 1 0
0.4936335934226004 1 0
0.3695854152707518 1 0
0.2034780140157211 1 0
1 5 0 37
35
36
37
38
39
40
41
42
43
44
45
46
47
48
49
50
51
52
53
54
55
56
57
58
59
60
61
62
63
64
65
66
67
68
69
70
71
0.7959083910208167 0.5493783770842201 0
0.7837451725101905 0.5974098407614049 0
0.7638421253619467 0.6427842179111219 0
0.7367421528189182 0.6842638138069002 0
0.7031844714877225 0.7207171732019393 0
0.6640844474367282 0.7511499434787584 0
0.6205086273958911 0.774731997996517 0
0.57364564614224 0.790820079781799 0
0.5247738036417001 0.798975347902001 0
0.4752261963583008 0.798975347902001 0
0.4263543538577609 0.7908200797817992 0
0.3794913726041098 0.7747319979965175 0
0.3359155525632725 0.751149943478759 0
0.2968155285122782 0.72071717320194 0
0.2632578471810824 0.6842638138069009 0
0.2361578746380536 0.6427842179111227 0
0.2162548274898099 0.5974098407614059 0
0.2040916089791834 0.5493783770842211 0
0.2 0.5000000000000011 0
0.2040916089791831 0.4506216229157811 0
0.2162548274898092 0.4025901592385961 0
0.2361578746380527 0.3572157820888792 0
0.263257847181081 0.3157361861931008 0
0.2968155285122765 0.2792828267980616 0
0.3359155525632706 0.2488500565212423 0
0.3794913726041076 0.2252680020034835 0
0.4263543538577584 0.2091799202182013 0
0.4752261963582986 0.2010246520979992 0
0.5247738036416979 0.2010246520979989 0
0.5736456461422381 0.2091799202182005 0
0.6205086273958891 0.225268002003482 0
0.6640844474367267 0.2488500565212405 0
0.7031844714877211 0.2792828267980595 0
0.7367421528189173 0.3157361861930987 0
0.7638421253619465 0.3572157820888775 0
0.7837451725101905 0.4025901592385951 0
0.7959083910208168 0.4506216229157804 0
2 3 0 203
72
73
74
75
76
77
78
79
80
81
82
83
84
85
86
87
88
89
90
91
92
93
94
95
96
97
98
99
100
101
102
103
104
105
106
107
108
109
110
111
112
113
114
115
116
117
118
119
120
121
122
123
124
125
126
127
128
129
130
131
132
133
134
135
136
137
138
139
140
141
142
143
144
145
146
147
148
149
150
151
152
153
154
155
156
157
158
159
160
161
162
163
164
165
166
167
168
169
170
171
172
173
174
175
176
177
178
179
180
181
182
183
184
185
186
187
188
189
190
191
192
193
194
195
196
197
198
199
200
201
202
203
204
205
206
207
208
209
210
211
212
213
214
215
216
217
218
219
220
221
222
223
224
225
226
227
228
229
230
231
232
233
234
235
236
237
238
239
240
241
242
243
244
245
246
247
248
249
250
251
252
253
254
255
256
257
258
259
260
261
262
263
264
265
266
267
268
269
270
271
272
273
274
0.8405338937925074 0.470915041963834 0
0.8130890122286201 0.3626664262206377 0
0.8317838854998402 0.5814855117908453 0
1.303171843333736 0.8278822845823606 0
1.474317377954913 0.1763695154534347 0
0.7520358298477552 0.7308402219683691 0
0.7523504559134564 0.2716646555920608 0
0.3371732057689328 0.2007547686699045 0
0.335903517708024 0.7985409960519795 0
1.093073975999113 0.1642158412061536 0
0.250877583926957 0.7323626554208713 0
0.2469875985367349 0.2704239559209662 0
1.847350975187756 0.4980509955259303 0
0.1894562275924433 0.6376748903376559 0
0.1866664690594447 0.363503238156444 0
0.6647602720134648 0.7992899732287003 0
0.6590727016692898 0.1951550489477567 0
0.4528144824332723 0.1664021198762131 0
0.4437276057412628 0.8372219709771198 0
0.5538087013526225 0.1626203044521925 0
0.5493960575676952 0.8407750725269294 0
0.1535245215871383 0.5211250508569539 0
1.691764762310748 0.8027651558130038 0
0.8771082762897997 0.1448697669200854 0
0.9409970248733532 0.3156382886530584 0
0.8771082762897949 0.8551302330799168 0
1.068128754509075 0.8716776058047835 0
1.142601781758897 0.6521246075026992 0
0.9543308412501115 0.7242531764150673 0
0.1702702210212251 0.4143517769297372 0
0.1367887812077383 0.3753094310915938 0
0.1512591490689301 0.3270017842361982 0
0.1209055762870278 0.4225754885441965 0
0.6087894923738444 0.1702837136814135 0
0.653170168006889 0.1446856459385449 0
0.5878430415308167 0.1240966642690132 0
0.7002394545824828 0.1641886908653594 0
0.5385113647977091 0.1160577521659895 0
0.7100249423775707 0.2103462694731318 0
0.7877011237638508 0.3069075889194255 0
0.2915642412011884 0.7677982683794196 0
0.2410141716390248 0.7830396779687858 0
0.2026674963966137 0.7476965515761782 0
0.2049446317337589 0.7970338840798863 0
0.2885595044120008 0.8196797828356227 0
0.3327672083977647 0.8488962364792436 0
0.2406853639086686 0.8351571022047422 0
0.1598572401608553 0.8636885492503652 0
0.2848069646788861 0.8585382068422363 0
0.1411497832164432 0.7756025192033152 0
0.1625998376129629 0.7176194581957769 0
0.7842552389218379 0.6943401367028804 0
0.8200263919892481 0.6293770476240148 0
0.867365414385067 0.6185848644336864 0
0.8784953802934607 0.568790895251635 0
0.8523091569888069 0.6630306293530874 0
0.9376103365849976 0.5969729322880462 0
0.6215621902989096 0.8230757587800329 0
0.6615641050078653 0.8505948626721094 0
0.7054313315242802 0.826638550876311 0
0.6209666793442169 0.8714792093547959 0
0.2890875191814922 0.2254123018581565 0
0.2331834752191372 0.2201583948747033 0
0.2598262706359087 0.185742651687032 0
0.2200920887573079 0.1704970511980478 0
0.1996401405674906 0.2577630710810219 0
0.8298433775478955 0.4163653208041529 0
0.8783136410751086 0.4357550751136889 0
0.8814648325447 0.4859221731089786 0
0.9263082580425724 0.4526641277347409 0
0.8622295168500074 0.3754266717296687 0
0.8381907034260617 0.3150135507067759 0
0.8002051100889822 0.257313762987 0
0.7480595383723301 0.1811882008973515 0
0.9101754863448716 0.3870174880698792 0
0.9797891534521099 0.3920828194998847 0
0.9880203787107211 0.4833538821204214 0
1.073838695058524 0.404996394387322 0
1.096938766874919 0.5191762953243405 0
1.185149344579428 0.4281466877180056 0
0.5010826839403104 0.8412524462318114 0
0.5312970710930641 0.8830468226264722 0
0.4784091045931756 0.8851713382012331 0
0.4277965770193064 0.8886763508520336 0
0.3787598636287575 0.1769307544449779 0
0.3404355386384138 0.1499429339951147 0
0.2561893542875127 0.137266396511192 0
0.3784723794634716 0.1258202181819585 0
0.1682098544118489 0.5941664775807434 0
0.142261820565844 0.6340753868706555 0
0.1178852921625626 0.5902013398133582 0
0.1519604186469545 0.4670330136173898 0
0.3874636521763037 0.8246827995786459 0
0.6611842339250975 0.8899402762782134 0
0.8030274665974875 0.7364216486676396 0
0.7719294807346833 0.7757656112812472 0
0.6807890618668997 0.120274940260197 0
0.6304797293153571 0.09404601792358891 0
0.3396916644565332 0.1097069678255053 0
1.271358255650021 0.1864675507876113 0
1.386279200379384 0.3339926399717665 0
1.54840060112509 0.3511433983656464 0
1.469955644846356 0.4952176302388425 0
1.68475871603647 0.1973799363109764 0
0.8445937643795085 0.5266810002955707 0
0.7160009147915214 0.7719191355894515 0
0.5008483182920096 0.1535601867878558 0
0.4610091350116221 0.1152908782535726 0
0.2073085291387291 0.3151698185849344 0
0.2102064596153954 0.6910514314403516 0
0.1135969401589602 0.4992651506267922 0
0.1000508455585771 0.3467583680553825 0
0.0992897574525895 0.2839622810039092 0
0.108504443285713 0.7346621733758701 0
1.228302648157028 0.556979263791908 0
1.489928049055103 0.8263446777515764 0
1.558961181167251 0.6488128202386896 0
0.8629978294784253 0.258161404458583 0
0.3087674514790152 0.9139401155722593 0
0.3716574268770194 0.8799080393806689 0
1.021865344795644 0.6322007639474738 0
0.1240723390699098 0.6817026921332465 0
0.06402876279521152 0.6926727120493968 0
0.08595503688532113 0.6345063170935457 0
0.6860729558934631 0.06811599649832312 0
0.2359351150312188 0.8884570115735345 0
0.06123178205037894 0.5666528045556319 0
0.09572017229082597 0.1035872148814956 0
0.9177912769381403 0.656610276661459 0
0.695844155676157 0.8692924743589374 0
0.7417701020484089 0.8628184919659472 0
1.381122693051875 0.6553999087893346 0
0.7295058479468961 0.1136577037321689 0
1.150812947653954 0.3032630535654005 0
0.3052264277393366 0.1272844072663884 0
0.2974584219824689 0.07383747471271251 0
1.850558295326736 0.6907183933221918 0
1.843276711015096 0.3079091776165436 0
0.1059867749107637 0.5414080106788794 0
0.08548654829194335 0.3892288505192079 0
0.07330014395226825 0.4222268042296883 0
0.5615261916796357 0.0678494473412623 0
0.7670052979202909 0.224132953928878 0
0.7030097424793809 0.925773084871923 0
0.1159160892878177 0.1922088783209341 0
0.9303154466906316 0.5503094141927554 0
0.9220157766987718 0.5005049200052757 0
0.3815403460159441 0.07591444605371234 0
0.4399964273912778 0.05763529680350132 0
0.4165951773260852 0.1034505751441442 0
0.4989221831365322 0.07289624968898195 0
0.4476226797785199 0.9392875862083854 0
0.5025204332066087 0.9260600350712949 0
0.5564010012151235 0.935851922804204 0
0.617916736518632 0.9225673294175154 0
0.7451726127266969 0.809454992545934 0
0.7951579559595222 0.8335912489606574 0
0.8235568600622267 0.7815854647972411 0
0.8409416236226634 0.7425125812935651 0
0.5770435277835479 0.8831277590904386 0
0.8315468471334663 0.703325124346472 0
0.09843951893832559 0.4621149429488841 0
0.07340236898907992 0.5059686787770831 0
0.1664283499596536 0.6749584328339558 0
0.4000656194214278 0.92945033435238 0
0.1605620565959188 0.2864410940496797 0
1.316550747686644 0.4567160622430261 0
0.3625189782620536 0.930824622326327 0
0.8783716871048518 0.7127238605324551 0
0.8829181121945439 0.3302514807235931 0
1.600702925809504 0.5004760746241997 0
1.051791876123534 0.7511673626269906 0
0.787504925272009 0.1416099527255469 0
0.8123534769113048 0.2043226522067908 0
0.3019961597645777 0.172322422360204 0
1.846818571514432 0.1520709766958364 0
1.706559732639341 0.4083352306210921 0
1.849365567799784 0.8484424073109593 0
0.9754138537220943 0.1797653895927216 0
0.4998227503094683 0.1144512667241 0
0.4057251352095828 0.8582001273333747 0
0.1773680096876239 0.2084317443721084 0
0.1472232402673188 0.2473802713274646 0
0.04902840637593464 0.4525423576226643 0
1.169297473418796 0.7951239579102479 0
0.1866674728895802 0.1144206565785915 0
0.9949500547313828 0.5564026575746075 0
1.714868466662131 0.5950518012832561 0
0.8118771048927829 0.912885509813074 0
0.4139621002329414 0.1504204110096231 0
0.1485336113540734 0.5600927253018908 0
0.8103959520790612 0.6665714311875153 0
0.5885228202273221 0.8418555759067992 0
1.244899287944066 0.6975020045153101 0
1.259461141675654 0.3388826362307543 0
0.7787308096189837 0.1878134399396418 0
0.8892607336596487 0.5275369155133114 0
1.042203805402613 0.3032903281817367 0
0.7208287786949634 0.2479404669844981 0
0.8845830470601047 0.7761423948323392 0
0.9688863233995851 0.8297284621265162 0
0.8222736916893301 0.2843490767679462 0
0.6200706078067267 0.1332780104531401 0
$EndNodes
$Elements
6 548 1 548
1 1 1 11
1 1 6 
2 6 7 
3 7 8 
4 8 9 
5 9 10 
6 10 11 
7 11 12 
8 12 13 
9 13 14 
10 14 15 
11 15 2 
1 2 1 6
12 3 16 
13 16 17 
14 17 18 
15 18 19 
16 19 20 
17 20 1 
1 3 1 5
18 2 21 
19 21 22 
20 22 23 
21 23 24 
22 24 4 
1 4 1 11
23 4 25 
24 25 26 
25 26 27 
26 27 28 
27 28 29 
28 29 30 
29 30 31 
30 31 32 
31 32 33 
32 33 34 
33 34 3 
1 5 1 38
34 5 35 
35 35 36 
36 36 37 
37 37 38 
38 38 39 
39 39 40 
40 40 41 
41 41 42 
42 42 43 
43 43 44 
44 44 45 
45 45 46 
46 46 47 
47 47 48 
48 48 49 
49 49 50 
50 50 51 
51 51 52 
52 52 53 
53 53 54 
54 54 55 
55 55 56 
56 56 57 
57 57 58 
58 58 59 
59 59 60 
60 60 61 
61 61 62 
62 62 63 
63 63 64 
64 64 65 
65 65 66 
66 66 67 
67 67 68 
68 68 69 
69 69 70 
70 70 71 
71 71 5 
2 3 2 477
72 16 121 119 
73 34 197 190 
74 95 244 10 
75 189 245 95 
76 10 204 196 
77 192 200 128 
78 193 195 161 
79 18 234 198 
80 99 192 150 
81 96 147 146 
82 220 222 179 
83 107 213 169 
84 143 241 142 
85 87 177 131 
86 74 176 126 
87 91 178 109 
88 83 180 137 
89 144 245 189 
90 186 238 203 
91 122 181 114 
92 164 191 117 
93 158 257 207 
94 73 143 142 
95 7 207 6 
96 154 155 90 
97 133 246 79 
98 111 143 73 
99 105 106 88 
100 20 216 184 
101 163 233 104 
102 152 154 90 
103 101 163 104 
104 80 164 117 
105 114 181 82 
106 69 111 73 
107 65 105 88 
108 59 133 79 
109 35 176 74 
110 63 178 91 
111 40 177 87 
112 57 180 83 
113 17 194 16 
114 116 118 113 
115 142 146 139 
116 169 213 9 
117 253 257 136 
118 179 221 220 
119 220 221 219 
120 206 246 158 
121 100 200 192 
122 16 194 185 
123 96 241 189 
124 76 172 171 
125 158 246 135 
126 11 95 10 
127 106 169 168 
128 112 116 113 
129 138 142 139 
130 194 195 193 
131 158 207 206 
132 93 210 182 
133 150 186 99 
134 155 236 191 
135 245 267 244 
136 9 213 8 
137 32 225 31 
138 93 262 210 
139 225 226 31 
140 203 238 174 
141 15 175 14 
142 179 261 221 
143 10 196 9 
144 76 171 13 
145 17 195 194 
146 89 261 179 
147 189 250 96 
148 33 223 32 
149 12 81 11 
150 135 246 133 
151 203 265 186 
152 113 118 115 
153 116 120 118 
154 18 198 17 
155 19 255 18 
156 31 215 30 
157 134 253 136 
158 137 253 134 
159 167 229 228 
160 139 146 141 
161 182 233 163 
162 8 220 7 
163 12 171 81 
164 160 262 52 
165 156 261 61 
166 124 263 37 
167 129 264 42 
168 211 212 19 
169 81 250 11 
170 225 231 226 
171 137 254 253 
172 101 102 86 
173 73 142 138 
174 112 113 82 
175 80 116 112 
176 123 166 77 
177 138 139 72 
178 92 153 152 
179 93 182 163 
180 171 205 81 
181 31 226 215 
182 236 239 191 
183 184 254 237 
184 7 219 207 
185 154 224 223 
186 88 110 66 
187 250 269 96 
188 217 258 128 
189 110 270 66 
190 187 188 94 
191 188 203 174 
192 96 269 147 
193 7 220 219 
194 68 111 69 
195 58 133 59 
196 41 129 42 
197 36 124 37 
198 64 105 65 
199 5 176 35 
200 62 178 63 
201 39 177 40 
202 60 156 61 
203 51 160 52 
204 56 180 57 
205 177 227 131 
206 52 262 93 
207 61 261 89 
208 37 263 123 
209 42 264 92 
210 30 260 29 
211 103 180 86 
212 167 177 77 
213 140 176 72 
214 226 231 132 
215 55 101 86 
216 50 181 85 
217 73 138 70 
218 48 112 82 
219 38 123 77 
220 46 164 80 
221 71 138 72 
222 80 112 47 
223 92 152 43 
224 44 152 90 
225 90 164 45 
226 54 163 101 
227 93 163 53 
228 82 181 49 
229 29 98 28 
230 26 187 94 
231 28 75 27 
232 200 240 127 
233 95 250 189 
234 164 252 191 
235 14 175 76 
236 98 256 28 
237 176 268 126 
238 145 214 110 
239 154 223 155 
240 122 235 181 
241 106 108 88 
242 128 258 192 
243 75 187 27 
244 178 251 109 
245 180 237 137 
246 97 272 29 
247 1 199 20 
248 187 203 188 
249 76 173 172 
250 11 250 95 
251 29 260 97 
252 109 251 222 
253 15 247 175 
254 13 171 12 
255 75 203 187 
256 173 174 172 
257 188 259 94 
258 17 198 195 
259 101 104 102 
260 102 103 86 
261 153 154 152 
262 139 140 72 
263 80 117 116 
264 166 167 77 
265 113 114 82 
266 184 237 103 
267 167 227 177 
268 66 270 67 
269 106 168 108 
270 108 110 88 
271 14 76 13 
272 181 235 85 
273 27 187 26 
274 214 270 110 
275 237 254 137 
276 6 199 1 
277 161 235 193 
278 172 266 171 
279 117 120 116 
280 113 115 114 
281 153 224 154 
282 166 229 167 
283 102 183 103 
284 26 94 25 
285 23 84 22 
286 108 145 110 
287 183 184 103 
288 153 225 224 
289 117 190 120 
290 166 230 229 
291 115 121 114 
292 130 201 165 
293 125 200 127 
294 117 191 190 
295 121 122 114 
296 165 226 132 
297 170 219 159 
298 195 198 162 
299 136 158 135 
300 128 200 125 
301 126 217 128 
302 131 202 201 
303 126 128 125 
304 157 170 159 
305 109 213 107 
306 134 136 135 
307 131 201 130 
308 130 165 132 
309 161 195 162 
310 94 259 208 
311 87 131 130 
312 91 109 107 
313 125 127 124 
314 130 132 129 
315 161 162 160 
316 83 137 134 
317 74 126 125 
318 157 159 156 
319 134 135 133 
320 185 193 122 
321 78 144 111 
322 89 179 178 
323 91 107 105 
324 74 125 124 
325 79 157 156 
326 83 134 133 
327 85 161 160 
328 87 130 129 
329 69 73 70 
330 65 88 66 
331 63 91 64 
332 67 78 68 
333 61 89 62 
334 70 138 71 
335 38 77 39 
336 35 74 36 
337 44 90 45 
338 59 79 60 
339 47 112 48 
340 48 82 49 
341 40 87 41 
342 57 83 58 
343 45 164 46 
344 37 123 38 
345 43 152 44 
346 50 85 51 
347 54 101 55 
348 55 86 56 
349 46 80 47 
350 49 181 50 
351 42 92 43 
352 52 93 53 
353 53 163 54 
354 71 72 5 
355 222 251 179 
356 87 129 41 
357 89 178 62 
358 78 111 68 
359 91 105 64 
360 83 133 58 
361 77 177 39 
362 79 156 60 
363 85 160 51 
364 86 180 56 
365 72 176 5 
366 74 124 36 
367 100 271 240 
368 28 256 75 
369 139 141 140 
370 223 236 155 
371 182 234 233 
372 121 185 122 
373 191 252 155 
374 29 272 98 
375 22 209 21 
376 99 265 256 
377 76 175 173 
378 24 208 23 
379 217 218 148 
380 189 273 144 
381 143 273 189 
382 106 274 169 
383 169 274 107 
384 171 266 205 
385 140 268 176 
386 103 237 180 
387 90 252 164 
388 167 228 227 
389 168 204 108 
390 21 247 2 
391 108 204 145 
392 2 247 15 
393 210 234 182 
394 81 269 250 
395 104 212 211 
396 85 235 161 
397 23 208 84 
398 228 229 97 
399 157 206 170 
400 100 240 200 
401 25 249 4 
402 214 245 144 
403 4 249 24 
404 84 209 22 
405 198 210 162 
406 104 211 102 
407 202 260 215 
408 102 211 183 
409 123 232 166 
410 92 231 153 
411 78 214 144 
412 95 245 244 
413 174 242 188 
414 223 224 32 
415 147 269 149 
416 126 268 217 
417 228 260 202 
418 155 252 90 
419 111 273 143 
420 105 274 106 
421 157 246 206 
422 234 255 233 
423 227 228 202 
424 256 265 75 
425 216 257 253 
426 192 243 100 
427 175 248 173 
428 210 262 162 
429 9 196 169 
430 149 205 151 
431 219 221 159 
432 151 186 150 
433 78 270 214 
434 33 239 236 
435 193 235 122 
436 248 259 242 
437 131 227 202 
438 166 232 230 
439 153 231 225 
440 75 265 203 
441 204 244 145 
442 84 259 248 
443 118 119 115 
444 191 239 190 
445 174 238 172 
446 136 257 158 
447 192 258 150 
448 104 233 212 
449 209 248 175 
450 221 261 159 
451 144 273 111 
452 107 274 105 
453 149 151 150 
454 179 251 178 
455 209 247 21 
456 79 246 157 
457 149 150 148 
458 175 247 209 
459 205 269 81 
460 94 249 25 
461 173 242 174 
462 207 257 6 
463 217 268 218 
464 169 196 168 
465 24 249 208 
466 244 267 145 
467 243 272 100 
468 186 265 99 
469 6 257 199 
470 8 222 220 
471 132 264 129 
472 127 263 124 
473 162 262 160 
474 159 261 156 
475 84 248 209 
476 214 267 245 
477 151 238 186 
478 67 270 78 
479 99 243 192 
480 148 258 217 
481 149 269 205 
482 120 197 118 
483 208 249 94 
484 208 259 84 
485 146 147 141 
486 150 258 148 
487 141 218 140 
488 232 240 230 
489 127 240 232 
490 123 263 232 
491 92 264 231 
492 185 194 193 
493 199 216 20 
494 229 271 97 
495 230 271 229 
496 151 266 238 
497 99 256 243 
498 243 256 98 
499 145 267 214 
500 18 255 234 
501 98 272 243 
502 147 149 148 
503 206 207 170 
504 233 255 212 
505 173 248 242 
506 205 266 151 
507 231 264 132 
508 232 263 127 
509 100 272 271 
510 238 266 172 
511 148 218 141 
512 242 259 188 
513 201 215 165 
514 253 254 216 
515 97 260 228 
516 118 197 119 
517 215 260 30 
518 218 268 140 
519 199 257 216 
520 271 272 97 
521 147 148 141 
522 16 119 3 
523 3 119 34 
524 213 222 8 
525 10 244 204 
526 16 185 121 
527 20 184 19 
528 19 184 183 
529 183 211 19 
530 212 255 19 
531 224 225 32 
532 34 190 33 
533 190 239 33 
534 33 236 223 
535 119 197 34 
536 146 241 96 
537 109 222 213 
538 119 121 115 
539 190 197 120 
540 142 241 146 
541 189 241 143 
542 215 226 165 
543 196 204 168 
544 207 219 170 
545 216 254 184 
546 198 234 210 
547 202 215 201 
548 240 271 230 
$EndElements
